# xmcd CD database file
#
# Track frame offsets:
#	150
#	17054
#	32253
#	61275
#	83806
#	103726
#	124149
#	154988
#	193265
#	233881
#
# Disc length: 3445 seconds
#
# Revision: 0
# Processed by: cddbd v1.5.2PL0 Copyright (c) Steve Scherf et al.
# Submitted via: CDex 1.50
#
DISCID=7d0d730a
DTITLE=Tift Merrit - Home is Loud
DYEAR=2009
DGENRE=Country
TTITLE0=Write My Ticket Home
TTITLE1=Your Love Made A Turn
TTITLE2=Ain't Looking Closely
TTITLE3=Laid A Highway
TTITLE4=Supposed To Make You Happy
TTITLE5=Neighbourhood
TTITLE6=Tambourine
TTITLE7=Shadow In The Way
TTITLE8=When I Crossover
TTITLE9=Bramble Rose
EXTD=YEAR: 2009
EXTT0=
EXTT1=
EXTT2=
EXTT3=
EXTT4=
EXTT5=
EXTT6=
EXTT7=
EXTT8=
EXTT9=
PLAYORDER=
